<svg width="132" height="132" viewBox="0 0 132 132" fill="none" xmlns="http://www.w3.org/2000/svg">
<path d="M55.6805 49.8154H16.5039V103.595C16.5039 106.029 18.4756 108 20.9092 108H101.887C104.321 108 106.293 106.029 106.293 103.595V49.8154H55.6805Z" fill="url(#paint0_linear_8407_9211)"/>
<path d="M101.215 36H21.574C18.7719 36 16.5 38.2719 16.5 41.074V49.8986H106.29V41.074C106.29 38.2719 104.018 36 101.216 36H101.215Z" fill="url(#paint1_linear_8407_9211)"/>
<path d="M26.2529 44.9133C27.5525 44.375 28.1697 42.885 27.6313 41.5854C27.093 40.2857 25.603 39.6686 24.3034 40.2069C23.0038 40.7452 22.3866 42.2352 22.9249 43.5348C23.4633 44.8345 24.9532 45.4516 26.2529 44.9133Z" fill="#6132BC"/>
<path d="M33.6164 45.1235C35.0231 45.1235 36.1635 43.9831 36.1635 42.5764C36.1635 41.1697 35.0231 40.0293 33.6164 40.0293C32.2097 40.0293 31.0693 41.1697 31.0693 42.5764C31.0693 43.9831 32.2097 45.1235 33.6164 45.1235Z" fill="#6132BC"/>
<path d="M41.9514 45.1235C43.3581 45.1235 44.4985 43.9831 44.4985 42.5764C44.4985 41.1697 43.3581 40.0293 41.9514 40.0293C40.5447 40.0293 39.4043 41.1697 39.4043 42.5764C39.4043 43.9831 40.5447 45.1235 41.9514 45.1235Z" fill="#6132BC"/>
<g filter="url(#filter0_d_8407_9211)">
<path d="M90.4844 31.7844C90.4844 29.635 92.2268 27.8926 94.3762 27.8926H115.781C117.931 27.8926 119.673 29.635 119.673 31.7844V88.2164C119.673 90.3658 117.931 92.1082 115.781 92.1082H94.3762C92.2268 92.1082 90.4844 90.3658 90.4844 88.2164V31.7844Z" fill="url(#paint2_linear_8407_9211)"/>
<path d="M90.4844 31.7844C90.4844 29.635 92.2268 27.8926 94.3762 27.8926H115.781C117.931 27.8926 119.673 29.635 119.673 31.7844V88.2164C119.673 90.3658 117.931 92.1082 115.781 92.1082H94.3762C92.2268 92.1082 90.4844 90.3658 90.4844 88.2164V31.7844Z" fill="#702FF6" fill-opacity="0.2"/>
<path d="M86.5908 31.7837V88.2156C86.5908 92.5145 90.0757 95.9993 94.3745 95.9993H115.78C120.079 95.9993 123.563 92.5145 123.563 88.2156V31.7837C123.563 27.4849 120.079 24 115.78 24H94.3745C90.0757 24 86.5908 27.4849 86.5908 31.7837ZM90.4827 31.7837C90.4827 29.6343 92.2251 27.8919 94.3745 27.8919H115.78C117.929 27.8919 119.672 29.6343 119.672 31.7837V88.2156L119.667 88.4161C119.566 90.406 117.97 92.0018 115.98 92.1027L115.78 92.1075H94.3745L94.174 92.1027C92.1842 92.0018 90.5884 90.406 90.4874 88.4161L90.4827 88.2156V31.7837Z" fill="url(#paint3_linear_8407_9211)"/>
<path d="M114.809 30H95.1895C93.9797 30 92.999 30.7231 92.999 31.615V32.885C92.999 33.7769 93.9797 34.5 95.1895 34.5H114.809C116.018 34.5 116.999 33.7769 116.999 32.885V31.615C116.999 30.7231 116.018 30 114.809 30Z" fill="url(#paint4_linear_8407_9211)" fill-opacity="0.5"/>
</g>
<defs>
<filter id="filter0_d_8407_9211" x="79.0908" y="19.5" width="48.9727" height="83.999" filterUnits="userSpaceOnUse" color-interpolation-filters="sRGB">
<feFlood flood-opacity="0" result="BackgroundImageFix"/>
<feColorMatrix in="SourceAlpha" type="matrix" values="0 0 0 0 0 0 0 0 0 0 0 0 0 0 0 0 0 0 127 0" result="hardAlpha"/>
<feOffset dx="-1.5" dy="1.5"/>
<feGaussianBlur stdDeviation="3"/>
<feComposite in2="hardAlpha" operator="out"/>
<feColorMatrix type="matrix" values="0 0 0 0 0 0 0 0 0 0 0 0 0 0 0 0 0 0 0.1 0"/>
<feBlend mode="normal" in2="BackgroundImageFix" result="effect1_dropShadow_8407_9211"/>
<feBlend mode="normal" in="SourceGraphic" in2="effect1_dropShadow_8407_9211" result="shape"/>
</filter>
<linearGradient id="paint0_linear_8407_9211" x1="-54.7505" y1="49.5005" x2="48.0004" y2="225.143" gradientUnits="userSpaceOnUse">
<stop offset="0.03" stop-color="#D574E5"/>
<stop offset="0.22" stop-color="#E652F7"/>
<stop offset="0.34" stop-color="#BC45F6"/>
<stop offset="0.5" stop-color="#8736F6"/>
<stop offset="0.66" stop-color="#5D2AF5"/>
<stop offset="0.8" stop-color="#3F21F5"/>
<stop offset="0.91" stop-color="#2D1BF5"/>
<stop offset="1" stop-color="#271AF5"/>
</linearGradient>
<linearGradient id="paint1_linear_8407_9211" x1="4.08694" y1="36.6656" x2="51.628" y2="112.617" gradientUnits="userSpaceOnUse">
<stop offset="0.11" stop-color="#E652F7"/>
<stop offset="0.19" stop-color="#C849F6"/>
<stop offset="0.33" stop-color="#973BF6"/>
<stop offset="0.48" stop-color="#6F2FF5"/>
<stop offset="0.62" stop-color="#4F25F5"/>
<stop offset="0.76" stop-color="#391FF5"/>
<stop offset="0.89" stop-color="#2B1BF5"/>
<stop offset="1" stop-color="#271AF5"/>
</linearGradient>
<linearGradient id="paint2_linear_8407_9211" x1="85.1738" y1="-35.2361" x2="180.908" y2="-7.39745" gradientUnits="userSpaceOnUse">
<stop stop-color="#271AF5"/>
<stop offset="0.12767" stop-color="#4222F5"/>
<stop offset="0.238757" stop-color="#5A29F6"/>
<stop offset="0.33488" stop-color="#702FF6"/>
<stop offset="0.417656" stop-color="#8335F6"/>
<stop offset="0.488704" stop-color="#943AF6"/>
<stop offset="0.54964" stop-color="#A33EF6"/>
<stop offset="0.602083" stop-color="#AF42F6"/>
<stop offset="0.64765" stop-color="#BA45F7"/>
<stop offset="0.68796" stop-color="#C448F7"/>
<stop offset="0.72463" stop-color="#CC4AF7"/>
<stop offset="0.759277" stop-color="#D34CF7"/>
<stop offset="0.79352" stop-color="#D94EF7"/>
<stop offset="0.828976" stop-color="#DE50F7"/>
<stop offset="0.867264" stop-color="#E251F7"/>
<stop offset="0.91" stop-color="#E652F7"/>
</linearGradient>
<linearGradient id="paint3_linear_8407_9211" x1="98.9556" y1="24" x2="147.041" y2="53.3061" gradientUnits="userSpaceOnUse">
<stop offset="0.09" stop-color="#E652F7"/>
<stop offset="0.132736" stop-color="#E251F7"/>
<stop offset="0.171024" stop-color="#DE50F7"/>
<stop offset="0.20648" stop-color="#D94EF7"/>
<stop offset="0.240723" stop-color="#D34CF7"/>
<stop offset="0.27537" stop-color="#CC4AF7"/>
<stop offset="0.31204" stop-color="#C448F7"/>
<stop offset="0.35235" stop-color="#BA45F7"/>
<stop offset="0.397917" stop-color="#AF42F6"/>
<stop offset="0.45036" stop-color="#A33EF6"/>
<stop offset="0.511296" stop-color="#943AF6"/>
<stop offset="0.582344" stop-color="#8335F6"/>
<stop offset="0.66512" stop-color="#702FF6"/>
<stop offset="0.761243" stop-color="#5A29F6"/>
<stop offset="0.87233" stop-color="#4222F5"/>
<stop offset="1" stop-color="#271AF5"/>
</linearGradient>
<linearGradient id="paint4_linear_8407_9211" x1="-16.8995" y1="23.5073" x2="117.695" y2="26.6251" gradientUnits="userSpaceOnUse">
<stop stop-color="#E652F7"/>
<stop offset="1" stop-color="#271AF5"/>
</linearGradient>
</defs>
</svg>
